<svg width="25" height="20" viewBox="0 0 25 20" fill="none" xmlns="http://www.w3.org/2000/svg">
<path d="M1.43472 0C0.642347 0 0 0.642346 0 1.43472C0 2.22709 0.642346 2.86944 1.43472 2.86944H23.5653C24.3577 2.86944 25 2.22709 25 1.43472C25 0.642346 24.3577 0 23.5653 0H1.43472ZM1.43472 8.52224C0.642347 8.52224 0 9.16459 0 9.95696C0 10.7493 0.642346 11.3917 1.43472 11.3917H23.5653C24.3577 11.3917 25 10.7493 25 9.95696C25 9.16459 24.3577 8.52224 23.5653 8.52224H1.43472ZM1.43472 17.1306C0.642347 17.1306 0 17.7729 0 18.5653C0 19.3577 0.642346 20 1.43472 20H23.5653C24.3577 20 25 19.3577 25 18.5653C25 17.7729 24.3577 17.1306 23.5653 17.1306H1.43472Z" fill="white"/>
</svg>
