<svg width="27" height="20" viewBox="0 0 27 20" fill="none" xmlns="http://www.w3.org/2000/svg">
<path fillRule="evenodd" clipRule="evenodd" d="M22.3751 7.01173C22.3751 8.72387 21.4503 10.2239 20.0742 11.0392C23.3532 12.0188 25.7895 14.9703 26 18.5115H25.0007C24.7679 15.0663 22.1407 12.2673 18.774 11.7688C20.8821 13.3084 22.2956 15.7445 22.4481 18.5115H21.4494C21.2624 15.499 19.3928 12.9348 16.7717 11.749C16.1865 11.4843 15.5638 11.2882 14.9138 11.1713C14.4548 11.0886 13.9824 11.0451 13.4999 11.0451C13.0175 11.0451 12.545 11.0887 12.086 11.1713C11.4361 11.2882 10.8134 11.4842 10.2281 11.749C7.607 12.9349 5.7374 15.499 5.55036 18.5115L4.55187 18.5115C4.70436 15.7445 6.11786 13.3085 8.22597 11.7688C4.85923 12.2673 2.23203 15.0663 1.99923 18.5115H1C1.21039 14.9703 3.64682 12.0188 6.92573 11.0392C5.54964 10.2239 4.62482 8.72392 4.62482 7.01173C4.62482 4.43227 6.72338 2.3337 9.30285 2.3337C9.55147 2.3337 9.79558 2.35342 10.0339 2.39098C10.936 1.52962 12.1573 1 13.5 1C14.8427 1 16.064 1.52967 16.9661 2.39098C17.2044 2.35337 17.4485 2.3337 17.6972 2.3337C20.2766 2.3337 22.3751 4.43227 22.3751 7.01173ZM21.3779 7.01163C21.3779 4.99613 19.7494 3.35466 17.7392 3.33193C18.2349 4.11018 18.5225 5.03338 18.5225 6.02253C18.5225 7.8444 17.5474 9.44276 16.0916 10.3233C16.5771 10.5596 17.1218 10.6925 17.6971 10.6925C19.7267 10.6925 21.3779 9.04124 21.3779 7.01163ZM11.1877 2.73061C10.8827 2.94551 10.6086 3.20114 10.374 3.49028C9.81219 4.1825 9.47469 5.06368 9.47453 6.02253C9.47453 7.64663 10.4419 9.04814 11.8302 9.68381C12.1641 9.83671 12.5219 9.94603 12.8969 10.0026C13.0937 10.0323 13.295 10.0479 13.4999 10.0479C13.7048 10.0479 13.9062 10.0323 14.103 10.0026C14.478 9.94603 14.8358 9.83671 15.1696 9.68381C16.558 9.04814 17.5253 7.64663 17.5253 6.02253C17.5253 5.06368 17.1878 4.1825 16.626 3.49028C16.3914 3.20108 16.1173 2.94546 15.8124 2.73061C15.1574 2.26921 14.36 1.99714 13.4999 1.99714C12.6398 1.99714 11.8424 2.26916 11.1877 2.73061ZM9.26067 3.33188C7.25046 3.35461 5.62196 4.99613 5.62196 7.01163C5.62196 9.04129 7.27319 10.6925 9.30285 10.6925C9.87808 10.6925 10.4228 10.5596 10.9083 10.3233C9.45259 9.44276 8.47739 7.8444 8.47739 6.02248C8.47739 5.03333 8.76493 4.11018 9.26067 3.33188Z" fill="white" stroke="white"/>
</svg>
