<svg width="25" height="25" viewBox="0 0 25 25" fill="none" xmlns="http://www.w3.org/2000/svg">
<path d="M8.01398 23.3598L8.0119 23.3607L5.53101 24.4575C5.45608 24.4905 5.37419 24.5047 5.29251 24.4986C5.21085 24.4926 5.1319 24.4667 5.06262 24.423C4.99334 24.3793 4.93584 24.3193 4.89519 24.2482C4.85453 24.1771 4.83196 24.0971 4.82945 24.0152L4.82945 24.0151L4.7607 21.7916L4.76063 21.7895C4.7535 21.5864 4.70513 21.3868 4.61846 21.203L4.1662 21.4162L4.61846 21.203C4.53179 21.0192 4.40863 20.8549 4.25647 20.7202L3.925 21.0945L4.25838 20.7218C1.93316 18.6416 0.5 15.6271 0.5 12.1254C0.5 5.452 5.71574 0.5 12.5 0.5C19.2843 0.5 24.5 5.452 24.5 12.1254C24.5 18.7988 19.2843 23.7509 12.5 23.7509C11.279 23.7509 10.1112 23.5896 9.01433 23.2892C8.68268 23.1971 8.32943 23.2221 8.01398 23.3598ZM8.24268 9.57898L8.24264 9.57903L4.57077 15.4042L4.57041 15.4048C3.92457 16.4325 5.1845 17.5957 6.1564 16.8602L6.15694 16.8598L10.1022 13.866L10.1024 13.8658C10.1457 13.833 10.1985 13.8151 10.2528 13.8149C10.3071 13.8147 10.3599 13.8322 10.4034 13.8648C10.4034 13.8648 10.4034 13.8648 10.4035 13.8648L13.3234 16.0552L13.3235 16.0553C13.5859 16.2521 13.8863 16.3924 14.2057 16.4674L14.3199 15.9806L14.2057 16.4674C14.5251 16.5423 14.8565 16.5503 15.1791 16.4908C15.5017 16.4313 15.8085 16.3056 16.0802 16.1216C16.3518 15.9376 16.5823 15.6994 16.7573 15.4219L16.7574 15.4218L20.4291 9.59692C20.4291 9.59682 20.4292 9.59673 20.4292 9.59664C21.0804 8.56446 19.8114 7.4083 18.8436 8.14065L18.8431 8.14106L14.8978 11.1349L14.8976 11.135C14.8543 11.1679 14.8015 11.1858 14.7472 11.186C14.6929 11.1862 14.6401 11.1687 14.5966 11.1361C14.5966 11.1361 14.5966 11.1361 14.5965 11.1361L11.6767 8.94421L11.6765 8.94406C11.4141 8.74724 11.1137 8.60692 10.7943 8.53196C10.4749 8.457 10.1435 8.44902 9.82088 8.50853C9.49826 8.56803 9.19147 8.69373 8.91984 8.8777C8.64704 9.06247 8.41689 9.30269 8.24268 9.57898Z" fill="#FCFCFC" stroke="#27323E"/>
</svg>
