<svg width="27" height="27" viewBox="0 0 27 27" fill="none" xmlns="http://www.w3.org/2000/svg">
<path d="M26 7.25V19.75C26 23.5 23.9167 26 19.0556 26H7.94444C3.08333 26 1 23.5 1 19.75V7.25C1 3.5 3.08333 1 7.94444 1H19.0556C23.9167 1 26 3.5 26 7.25Z" fill="#FCFCFC" stroke="#27323E" strokeWidth="1.5" stroke-miterlimit="10" strokeLinecap="round" strokeLinejoin="round"/>
<path d="M18.3611 1V10.825C18.3611 11.375 17.6389 11.65 17.1945 11.2875L13.9722 8.6125C13.8445 8.50421 13.6755 8.44391 13.5 8.44391C13.3245 8.44391 13.1556 8.50421 13.0278 8.6125L9.80558 11.2875C9.36114 11.65 8.63892 11.375 8.63892 10.825V1H18.3611ZM15.2361 16H21.1389H15.2361ZM9.33336 21H21.1389H9.33336Z" fill="#FCFCFC"/>
<path d="M15.2361 16H21.1389M9.33336 21H21.1389M18.3611 1V10.825C18.3611 11.375 17.6389 11.65 17.1945 11.2875L13.9722 8.6125C13.8445 8.50421 13.6755 8.44391 13.5 8.44391C13.3245 8.44391 13.1556 8.50421 13.0278 8.6125L9.80558 11.2875C9.36114 11.65 8.63892 11.375 8.63892 10.825V1H18.3611Z" stroke="#27323E" strokeWidth="1.5" stroke-miterlimit="10" strokeLinecap="round" strokeLinejoin="round"/>
</svg>
