<svg width="22" height="22" viewBox="0 0 22 22" fill="none" xmlns="http://www.w3.org/2000/svg">
<path d="M11.1207 11.78C11.0507 11.77 10.9607 11.77 10.8807 11.78C9.1207 11.72 7.7207 10.28 7.7207 8.50998C7.7207 6.69998 9.1807 5.22998 11.0007 5.22998C12.8107 5.22998 14.2807 6.69998 14.2807 8.50998C14.2707 10.28 12.8807 11.72 11.1207 11.78Z" stroke="white" strokeWidth="1.5" strokeLinecap="round" strokeLinejoin="round"/>
<path d="M17.7398 18.3801C15.9598 20.0101 13.5998 21.0001 10.9998 21.0001C8.39977 21.0001 6.03977 20.0101 4.25977 18.3801C4.35977 17.4401 4.95977 16.5201 6.02977 15.8001C8.76977 13.9801 13.2498 13.9801 15.9698 15.8001C17.0398 16.5201 17.6398 17.4401 17.7398 18.3801Z" stroke="white" strokeWidth="1.5" strokeLinecap="round" strokeLinejoin="round"/>
<path d="M11 21C16.5228 21 21 16.5228 21 11C21 5.47715 16.5228 1 11 1C5.47715 1 1 5.47715 1 11C1 16.5228 5.47715 21 11 21Z" stroke="white" strokeWidth="1.5" strokeLinecap="round" strokeLinejoin="round"/>
</svg>
