<svg width="20" height="21" viewBox="0 0 20 21" fill="none" xmlns="http://www.w3.org/2000/svg">
<path d="M19.25 10C19.25 15.1086 15.1086 19.25 10 19.25C4.89137 19.25 0.75 15.1086 0.75 10C0.75 4.89136 4.89136 0.75 10 0.75C15.1086 0.75 19.25 4.89137 19.25 10Z" fill="white" stroke="white" strokeWidth="1.5" strokeLinecap="round" strokeLinejoin="round"/>
<path d="M10.1207 10.78C10.0507 10.77 9.9607 10.77 9.8807 10.78C8.1207 10.72 6.7207 9.28 6.7207 7.50998C6.7207 5.69998 8.1807 4.22998 10.0007 4.22998C11.8107 4.22998 13.2807 5.69998 13.2807 7.50998C13.2707 9.28 11.8807 10.72 10.1207 10.78Z" stroke="#27323E" strokeWidth="1.5" strokeLinecap="round" strokeLinejoin="round"/>
<path d="M16.7398 17.3801C14.9598 19.0101 12.5998 20.0001 9.9998 20.0001C7.39977 20.0001 5.03977 19.0101 3.25977 17.3801C3.35977 16.4401 3.95977 15.5201 5.02977 14.8001C7.76977 12.9801 12.2498 12.9801 14.9698 14.8001C16.0398 15.5201 16.6398 16.4401 16.7398 17.3801Z" stroke="#27323E" strokeWidth="1.5" strokeLinecap="round" strokeLinejoin="round"/>
</svg>
