<svg width="27" height="27" viewBox="0 0 27 27" fill="none" xmlns="http://www.w3.org/2000/svg">
<path d="M9.125 22.1864H8.5C3.5 22.1864 1 20.9402 1 14.7089V8.47757C1 3.49252 3.5 1 8.5 1H18.5C23.5 1 26 3.49252 26 8.47757V14.7089C26 19.6939 23.5 22.1864 18.5 22.1864H17.875C17.4875 22.1864 17.1125 22.3734 16.875 22.6849L15 25.1775C14.175 26.2742 12.825 26.2742 12 25.1775L10.125 22.6849C9.925 22.4108 9.475 22.1864 9.125 22.1864Z" fill="#FCFCFC" stroke="#27323E" strokeWidth="1.5" stroke-miterlimit="10" strokeLinecap="round" strokeLinejoin="round"/>
<path d="M8.5 9.3878L6 11.8803L8.5 14.3728M18.5 9.3878L21 11.8803L18.5 14.3728M14.75 8.97653L12.25 14.7841L14.75 8.97653Z" fill="#FCFCFC"/>
<path d="M8.5 9.3878L6 11.8803L8.5 14.3728M18.5 9.3878L21 11.8803L18.5 14.3728M14.75 8.97653L12.25 14.7841" stroke="#27323E" strokeWidth="1.5" stroke-miterlimit="10" strokeLinecap="round" strokeLinejoin="round"/>
</svg>
