<svg width="188" height="28" viewBox="0 0 188 28" fill="#97bce6" xmlns="http://www.w3.org/2000/svg">
<path d="M0.710227 27V24.6989L9.35227 15.2386C10.3665 14.1307 11.2017 13.1676 11.858 12.3494C12.5142 11.5227 13 10.7472 13.3153 10.0227C13.6392 9.28977 13.8011 8.52273 13.8011 7.72159C13.8011 6.80114 13.5795 6.00426 13.1364 5.33097C12.7017 4.65767 12.1051 4.13778 11.3466 3.77131C10.5881 3.40483 9.7358 3.22159 8.78977 3.22159C7.78409 3.22159 6.90625 3.4304 6.15625 3.84801C5.41477 4.2571 4.83949 4.83239 4.4304 5.57386C4.02983 6.31534 3.82955 7.18466 3.82955 8.18182H0.8125C0.8125 6.64773 1.16619 5.30114 1.87358 4.14205C2.58097 2.98295 3.54403 2.07954 4.76278 1.43182C5.99006 0.78409 7.36648 0.460226 8.89205 0.460226C10.4261 0.460226 11.7855 0.78409 12.9702 1.43182C14.1548 2.07954 15.0838 2.95312 15.7571 4.05256C16.4304 5.15199 16.767 6.375 16.767 7.72159C16.767 8.68466 16.5923 9.62642 16.2429 10.5469C15.902 11.4588 15.3054 12.4773 14.4531 13.6023C13.6094 14.7187 12.4375 16.0824 10.9375 17.6932L5.05682 23.983V24.1875H17.2273V27H0.710227ZM36.6003 27.358C35.5264 27.3409 34.4526 27.1364 33.3787 26.7443C32.3048 26.3523 31.3247 25.6918 30.4384 24.7628C29.552 23.8253 28.8403 22.5597 28.3034 20.9659C27.7665 19.3636 27.498 17.3523 27.498 14.9318C27.498 12.6136 27.7153 10.5597 28.15 8.76989C28.5847 6.97159 29.2153 5.45881 30.042 4.23153C30.8687 2.99574 31.8659 2.05824 33.0335 1.41903C34.2097 0.779828 35.5349 0.460226 37.0094 0.460226C38.4753 0.460226 39.7793 0.754261 40.9213 1.34233C42.0719 1.92187 43.0094 2.73153 43.7338 3.77131C44.4582 4.81108 44.927 6.00852 45.1401 7.36364H42.0207C41.731 6.1875 41.1685 5.21165 40.3332 4.43608C39.498 3.66051 38.3901 3.27273 37.0094 3.27273C34.981 3.27273 33.383 4.15483 32.2153 5.91903C31.0562 7.68324 30.4724 10.1591 30.4639 13.3466H30.6685C31.1457 12.6222 31.7125 12.0043 32.3687 11.4929C33.0335 10.973 33.7665 10.5724 34.5676 10.2912C35.3688 10.0099 36.2168 9.86932 37.1116 9.86932C38.6116 9.86932 39.9838 10.2443 41.2281 10.9943C42.4724 11.7358 43.4696 12.7628 44.2196 14.0753C44.9696 15.3793 45.3446 16.875 45.3446 18.5625C45.3446 20.1818 44.9824 21.6648 44.258 23.0114C43.5335 24.3494 42.5151 25.4148 41.2026 26.2074C39.8986 26.9915 38.3645 27.375 36.6003 27.358ZM36.6003 24.5455C37.6741 24.5455 38.6372 24.277 39.4895 23.7401C40.3503 23.2031 41.0278 22.483 41.5222 21.5795C42.025 20.6761 42.2764 19.6705 42.2764 18.5625C42.2764 17.4801 42.0335 16.4957 41.5477 15.6094C41.0705 14.7145 40.4099 14.0028 39.5662 13.4744C38.731 12.946 37.7764 12.6818 36.7026 12.6818C35.8929 12.6818 35.1386 12.8437 34.4398 13.1676C33.7409 13.483 33.1273 13.9176 32.5989 14.4716C32.079 15.0256 31.6699 15.6605 31.3716 16.3764C31.0733 17.0838 30.9241 17.8295 30.9241 18.6136C30.9241 19.6534 31.167 20.625 31.6528 21.5284C32.1472 22.4318 32.8205 23.1605 33.6727 23.7145C34.5335 24.2685 35.5094 24.5455 36.6003 24.5455ZM70.5504 7.36364C70.3969 6.06818 69.7748 5.0625 68.6839 4.34659C67.593 3.63068 66.2549 3.27273 64.6697 3.27273C63.5106 3.27273 62.4964 3.46023 61.6271 3.83523C60.7663 4.21023 60.093 4.72585 59.6072 5.3821C59.1299 6.03835 58.8913 6.78409 58.8913 7.61932C58.8913 8.31818 59.0575 8.91903 59.3898 9.42188C59.7308 9.91619 60.1654 10.3295 60.6938 10.6619C61.2222 10.9858 61.7762 11.2543 62.3558 11.4673C62.9353 11.6719 63.468 11.8381 63.9538 11.9659L66.6129 12.6818C67.2947 12.8608 68.0532 13.108 68.8884 13.4233C69.7322 13.7386 70.5376 14.169 71.3046 14.7145C72.0802 15.2514 72.7194 15.9418 73.2222 16.7855C73.7251 17.6293 73.9765 18.6648 73.9765 19.892C73.9765 21.3068 73.6058 22.5852 72.8643 23.7273C72.1313 24.8693 71.0575 25.777 69.6427 26.4503C68.2364 27.1236 66.5276 27.4602 64.5163 27.4602C62.6413 27.4602 61.0177 27.1577 59.6455 26.5526C58.2819 25.9474 57.208 25.1037 56.4239 24.0213C55.6484 22.9389 55.2094 21.6818 55.1072 20.25H58.3799C58.4651 21.2386 58.7975 22.0568 59.3771 22.7045C59.9651 23.3437 60.7066 23.821 61.6015 24.1364C62.5049 24.4432 63.4765 24.5966 64.5163 24.5966C65.7265 24.5966 66.8131 24.4006 67.7762 24.0085C68.7393 23.608 69.5021 23.054 70.0646 22.3466C70.6271 21.6307 70.9083 20.7955 70.9083 19.8409C70.9083 18.9716 70.6654 18.2642 70.1796 17.7188C69.6938 17.1733 69.0546 16.7301 68.262 16.3892C67.4694 16.0483 66.6129 15.75 65.6924 15.4943L62.4708 14.5739C60.4254 13.9858 58.806 13.1463 57.6129 12.0554C56.4197 10.9645 55.8231 9.53693 55.8231 7.77273C55.8231 6.30682 56.2194 5.02841 57.012 3.9375C57.8131 2.83807 58.887 1.98579 60.2336 1.38068C61.5887 0.767045 63.1015 0.460226 64.7719 0.460226C66.4594 0.460226 67.9594 0.762783 69.2719 1.3679C70.5844 1.96449 71.6242 2.78267 72.3913 3.82244C73.1668 4.86221 73.5759 6.04261 73.6185 7.36364H70.5504ZM92.7199 7.36364V9.92045H82.5437V7.36364H92.7199ZM85.5097 2.65909H88.5267V21.375C88.5267 22.2273 88.6503 22.8665 88.8974 23.2926C89.1531 23.7102 89.477 23.9915 89.869 24.1364C90.2696 24.2727 90.6915 24.3409 91.1347 24.3409C91.467 24.3409 91.7398 24.3239 91.9528 24.2898C92.1659 24.2472 92.3364 24.2131 92.4642 24.1875L93.0778 26.8977C92.8733 26.9744 92.5878 27.0511 92.2213 27.1278C91.8548 27.2131 91.3903 27.2557 90.8278 27.2557C89.9756 27.2557 89.1403 27.0724 88.3222 26.706C87.5125 26.3395 86.8392 25.7812 86.3023 25.0312C85.7739 24.2812 85.5097 23.3352 85.5097 22.1932V2.65909ZM115.033 18.9716V7.36364H118.05V27H115.033V23.6761H114.829C114.368 24.6733 113.653 25.5213 112.681 26.2202C111.709 26.9105 110.482 27.2557 108.999 27.2557C107.772 27.2557 106.681 26.9872 105.726 26.4503C104.772 25.9048 104.022 25.0866 103.476 23.9957C102.931 22.8963 102.658 21.5114 102.658 19.8409V7.36364H105.675V19.6364C105.675 21.0682 106.076 22.2102 106.877 23.0625C107.687 23.9148 108.718 24.3409 109.971 24.3409C110.721 24.3409 111.484 24.1491 112.259 23.7656C113.043 23.3821 113.699 22.794 114.228 22.0014C114.765 21.2088 115.033 20.1989 115.033 18.9716ZM136.391 27.4091C134.755 27.4091 133.31 26.9957 132.057 26.169C130.804 25.3338 129.824 24.1577 129.117 22.6406C128.409 21.1151 128.056 19.3125 128.056 17.233C128.056 15.1705 128.409 13.3807 129.117 11.8636C129.824 10.3466 130.809 9.17472 132.07 8.34801C133.331 7.52131 134.789 7.10795 136.442 7.10795C137.721 7.10795 138.73 7.32102 139.472 7.74716C140.222 8.16477 140.793 8.64205 141.185 9.17898C141.586 9.70739 141.897 10.142 142.118 10.483H142.374V0.818181H145.391V27H142.476V23.983H142.118C141.897 24.3409 141.581 24.7926 141.172 25.3381C140.763 25.875 140.179 26.3565 139.421 26.7827C138.662 27.2003 137.652 27.4091 136.391 27.4091ZM136.8 24.6989C138.01 24.6989 139.033 24.3835 139.868 23.7528C140.703 23.1136 141.338 22.2315 141.773 21.1065C142.208 19.973 142.425 18.6648 142.425 17.1818C142.425 15.7159 142.212 14.4332 141.786 13.3338C141.36 12.2259 140.729 11.3651 139.894 10.7514C139.059 10.1293 138.027 9.81818 136.8 9.81818C135.522 9.81818 134.456 10.1463 133.604 10.8026C132.76 11.4503 132.125 12.3324 131.699 13.4489C131.282 14.5568 131.073 15.8011 131.073 17.1818C131.073 18.5795 131.286 19.8494 131.712 20.9915C132.147 22.125 132.786 23.0284 133.63 23.7017C134.482 24.3665 135.539 24.6989 136.8 24.6989ZM156.736 27V7.36364H159.753V27H156.736ZM158.27 4.09091C157.682 4.09091 157.174 3.89062 156.748 3.49006C156.331 3.08949 156.122 2.60795 156.122 2.04545C156.122 1.48295 156.331 1.00142 156.748 0.600851C157.174 0.200284 157.682 0 158.27 0C158.858 0 159.361 0.200284 159.778 0.600851C160.204 1.00142 160.417 1.48295 160.417 2.04545C160.417 2.60795 160.204 3.08949 159.778 3.49006C159.361 3.89062 158.858 4.09091 158.27 4.09091ZM178.656 27.4091C176.883 27.4091 175.328 26.9872 173.99 26.1435C172.66 25.2997 171.62 24.1193 170.87 22.6023C170.129 21.0852 169.758 19.3125 169.758 17.2841C169.758 15.2386 170.129 13.4531 170.87 11.9276C171.62 10.402 172.66 9.21733 173.99 8.37358C175.328 7.52983 176.883 7.10795 178.656 7.10795C180.429 7.10795 181.98 7.52983 183.309 8.37358C184.647 9.21733 185.687 10.402 186.429 11.9276C187.179 13.4531 187.554 15.2386 187.554 17.2841C187.554 19.3125 187.179 21.0852 186.429 22.6023C185.687 24.1193 184.647 25.2997 183.309 26.1435C181.98 26.9872 180.429 27.4091 178.656 27.4091ZM178.656 24.6989C180.002 24.6989 181.11 24.3537 181.98 23.6634C182.849 22.973 183.492 22.0653 183.91 20.9403C184.328 19.8153 184.537 18.5966 184.537 17.2841C184.537 15.9716 184.328 14.7486 183.91 13.6151C183.492 12.4815 182.849 11.5653 181.98 10.8665C181.11 10.1676 180.002 9.81818 178.656 9.81818C177.309 9.81818 176.201 10.1676 175.332 10.8665C174.463 11.5653 173.819 12.4815 173.402 13.6151C172.984 14.7486 172.775 15.9716 172.775 17.2841C172.775 18.5966 172.984 19.8153 173.402 20.9403C173.819 22.0653 174.463 22.973 175.332 23.6634C176.201 24.3537 177.309 24.6989 178.656 24.6989Z" fill="#97bce6"/>
</svg>
