<svg width="16" height="16" viewBox="0 0 16 16" fill="none" xmlns="http://www.w3.org/2000/svg">
<path d="M11.3335 12.2868H8.66683L5.70016 14.2601C5.60004 14.3269 5.48368 14.3652 5.3635 14.371C5.24331 14.3768 5.12381 14.3498 5.01773 14.293C4.91166 14.2362 4.82299 14.1517 4.76119 14.0484C4.69939 13.9452 4.66678 13.8271 4.66683 13.7068V12.2868C2.66683 12.2868 1.3335 10.9535 1.3335 8.95345V4.95345C1.3335 2.95345 2.66683 1.62012 4.66683 1.62012H11.3335C13.3335 1.62012 14.6668 2.95345 14.6668 4.95345V8.95345C14.6668 10.9535 13.3335 12.2868 11.3335 12.2868Z" stroke="#FCFCFC" stroke-miterlimit="10" strokeLinecap="round" strokeLinejoin="round"/>
<path d="M8.00022 7.57324V7.43324C8.00022 6.97991 8.28022 6.73991 8.56022 6.54658C8.83355 6.35991 9.10689 6.11991 9.10689 5.67991C9.10689 5.06658 8.61355 4.57324 8.00022 4.57324C7.38689 4.57324 6.89355 5.06658 6.89355 5.67991M7.99689 9.16658H8.00355" stroke="#FCFCFC" strokeLinecap="round" strokeLinejoin="round"/>
</svg>
