<svg xmlns="http://www.w3.org/2000/svg" width="216" height="58" viewBox="0 0 216 58">
  <defs>
    <linearGradient id="black-a" x1="-102.51%" x2="1469.439%" y1="-69.313%" y2="-69.313%">
      <stop offset="0%" stop-color="#4F2741"/>
      <stop offset="100%" stop-color="#8E616C"/>
    </linearGradient>
  </defs>
  <g fill="none" fill-rule="evenodd" transform="translate(-147 -22)">
    <rect width="1920" height="8214" fill="#FFF"/>
    <g fill="url(#black-a)" transform="translate(147 22)">
      <path d="M26.6445 46.1609C26.2755 46.4519 25.7855 46.5969 25.1725 46.5969L22.3705 46.5969 22.3705 43.3229 25.1725 43.3229C25.8005 43.3229 26.2945 43.4649 26.6565 43.7479 27.0175 44.0299 27.1985 44.4309 27.1985 44.9479 27.1985 45.4669 27.0135 45.8709 26.6445 46.1609M25.4785 39.7439L18.1315 39.7439 18.1315 56.2279 22.3705 56.2279 22.3705 50.0819 25.4785 50.0819C27.3315 50.0819 28.7905 49.6029 29.8595 48.6449 30.9425 47.6729 31.4845 46.4249 31.4845 44.9009 31.4845 43.3789 30.9425 42.1389 29.8595 41.1809 28.7905 40.2239 27.3315 39.7439 25.4785 39.7439M45.5664 51.3299C44.7344 52.2099 43.7064 52.6489 42.4814 52.6489 41.2414 52.6489 40.2054 52.2099 39.3734 51.3299 38.5564 50.4669 38.1484 49.3519 38.1484 47.9859 38.1484 46.6199 38.5564 45.5059 39.3734 44.6429 40.2054 43.7639 41.2414 43.3229 42.4814 43.3229 43.7064 43.3229 44.7344 43.7639 45.5664 44.6429 46.3984 45.5209 46.8144 46.6369 46.8144 47.9859 46.8144 49.3369 46.3984 50.4509 45.5664 51.3299M42.4814 39.4139C39.9854 39.4139 37.9134 40.2469 36.2644 41.9109 34.6164 43.5749 33.7924 45.6009 33.7924 47.9859 33.7924 50.3729 34.6164 52.3979 36.2644 54.0619 37.9134 55.7259 39.9854 56.5589 42.4814 56.5589 44.9774 56.5589 47.0504 55.7259 48.6994 54.0619 50.3474 52.3979 51.1714 50.3729 51.1714 47.9859 51.1714 45.6009 50.3474 43.5749 48.6994 41.9109 47.0504 40.2469 44.9774 39.4139 42.4814 39.4139M59.7656 51.3543C58.8246 50.4913 58.3526 49.3683 58.3526 47.9863 58.3526 46.6363 58.8156 45.5213 59.7426 44.6423 60.6676 43.7633 61.8226 43.3233 63.2036 43.3233 64.7266 43.3233 66.1316 43.7233 67.4186 44.5243L67.4186 40.3563C66.1476 39.7283 64.7266 39.4143 63.1576 39.4143 60.5196 39.4143 58.3286 40.2143 56.5866 41.8163 54.8596 43.4173 53.9956 45.4743 53.9956 47.9863 53.9956 50.4983 54.8676 52.5543 56.6106 54.1563 58.3526 55.7573 60.5426 56.5583 63.1806 56.5583 64.8446 56.5583 66.3516 56.2123 67.7026 55.5223L67.7026 51.3303C66.5396 52.2093 65.0956 52.6493 63.3696 52.6493 61.9236 52.6493 60.7236 52.2173 59.7656 51.3543"/>
      <polygon points="70.128 43.465 75.073 43.465 75.073 56.229 79.313 56.229 79.313 43.465 84.281 43.465 84.281 39.744 70.128 39.744"/>
      <path d="M97.3037,51.3299 C96.4717,52.2099 95.4437,52.6489 94.2187,52.6489 C92.9787,52.6489 91.9427,52.2099 91.1107,51.3299 C90.2937,50.4669 89.8857,49.3519 89.8857,47.9859 C89.8857,46.6199 90.2937,45.5059 91.1107,44.6429 C91.9427,43.7639 92.9787,43.3229 94.2187,43.3229 C95.4437,43.3229 96.4717,43.7639 97.3037,44.6429 C98.1357,45.5209 98.5517,46.6369 98.5517,47.9859 C98.5517,49.3369 98.1357,50.4509 97.3037,51.3299 M94.2187,39.4139 C91.7227,39.4139 89.6507,40.2469 88.0017,41.9109 C86.3537,43.5749 85.5297,45.6009 85.5297,47.9859 C85.5297,50.3729 86.3537,52.3979 88.0017,54.0619 C89.6507,55.7259 91.7227,56.5589 94.2187,56.5589 C96.7147,56.5589 98.7877,55.7259 100.4367,54.0619 C102.0847,52.3979 102.9087,50.3729 102.9087,47.9859 C102.9087,45.6009 102.0847,43.5749 100.4367,41.9109 C98.7877,40.2469 96.7147,39.4139 94.2187,39.4139"/>
      <polygon points="112.894 56.228 117.132 56.228 117.132 43.464 122.925 43.464 122.925 56.228 127.164 56.228 127.164 39.744 112.894 39.744"/>
      <path d="M139.5376 46.1609C139.1686 46.4519 138.6786 46.5969 138.0656 46.5969L135.2636 46.5969 135.2636 43.3229 138.0656 43.3229C138.6936 43.3229 139.1876 43.4649 139.5496 43.7479 139.9106 44.0299 140.0916 44.4309 140.0916 44.9479 140.0916 45.4669 139.9066 45.8709 139.5376 46.1609M138.3716 39.7439L131.0246 39.7439 131.0246 56.2279 135.2636 56.2279 135.2636 50.0819 138.3716 50.0819C140.2246 50.0819 141.6836 49.6029 142.7526 48.6449 143.8356 47.6729 144.3776 46.4249 144.3776 44.9009 144.3776 43.3789 143.8356 42.1389 142.7526 41.1809 141.6836 40.2239 140.2246 39.7439 138.3716 39.7439M158.4595 51.3299C157.6275 52.2099 156.5995 52.6489 155.3745 52.6489 154.1345 52.6489 153.0985 52.2099 152.2665 51.3299 151.4495 50.4669 151.0415 49.3519 151.0415 47.9859 151.0415 46.6199 151.4495 45.5059 152.2665 44.6429 153.0985 43.7639 154.1345 43.3229 155.3745 43.3229 156.5995 43.3229 157.6275 43.7639 158.4595 44.6429 159.2915 45.5209 159.7075 46.6369 159.7075 47.9859 159.7075 49.3369 159.2915 50.4509 158.4595 51.3299M155.3745 39.4139C152.8785 39.4139 150.8065 40.2469 149.1575 41.9109 147.5095 43.5749 146.6855 45.6009 146.6855 47.9859 146.6855 50.3729 147.5095 52.3979 149.1575 54.0619 150.8065 55.7259 152.8785 56.5589 155.3745 56.5589 157.8705 56.5589 159.9435 55.7259 161.5925 54.0619 163.2405 52.3979 164.0645 50.3729 164.0645 47.9859 164.0645 45.6009 163.2405 43.5749 161.5925 41.9109 159.9435 40.2469 157.8705 39.4139 155.3745 39.4139"/>
      <polygon points="182.079 39.744 176.992 39.744 171.646 46.032 171.646 39.744 167.408 39.744 167.408 56.228 171.646 56.228 171.646 48.905 178.1 56.228 183.257 56.228 175.697 47.327"/>
      <path d="M191.2866,49.3523 L193.0056,44.9483 L194.7246,49.3523 L191.2866,49.3523 Z M191.0046,39.6503 L184.0806,56.2283 L188.5556,56.2283 L189.9446,52.7433 L196.0666,52.7433 L197.4566,56.2283 L202.0016,56.2283 L195.0786,39.6503 L191.0046,39.6503 Z"/>
      <path d="M214.355,39.7439 C213.856,21.2299 172.085,21.2379 168.292,21.2379 C134.459,21.2379 132.494,0.9999 103.222,0.9999 C77.679,0.9999 42.796,13.2869 34.366,14.1649 C14.682,16.2139 0.197,22.2529 0.013,39.7439 L0,39.7439 L0,56.2279 L4.238,56.2279 L4.238,43.4649 L10.031,43.4649 L10.031,56.2279 L14.271,56.2279 L14.271,39.7439 L4.147,39.7439 C4.381,21.7169 22.741,18.4069 38.048,18.4069 C39.528,18.4069 45.108,18.6119 51.928,20.0059 C52.993,20.2569 54.173,20.5269 55.446,20.8079 C55.452,20.8099 55.459,20.8109 55.464,20.8129 C64.551,22.8159 78.599,25.3839 92.898,25.9429 C107.413,26.5099 116.29,25.0769 121.09,23.8279 C121.623,23.6899 121.468,22.9039 120.922,22.9679 C101.057,25.3099 69.549,21.3519 49.722,15.4049 C49.175,15.2409 49.185,14.4619 49.733,14.3009 C63.56,10.2519 84.367,4.5999 103.764,4.5999 C131.327,4.5999 133.401,24.3939 168.479,24.3939 C201.916,24.3939 211.459,32.8239 211.759,39.7439 L201.247,39.7439 L201.247,43.4649 L206.192,43.4649 L206.192,56.2279 L210.431,56.2279 L210.431,43.4649 L215.4,43.4649 L215.4,39.7439 L214.355,39.7439 Z"/>
    </g>
  </g>
</svg>
