<svg width="25" height="22" viewBox="0 0 25 22" fill="none" xmlns="http://www.w3.org/2000/svg">
<path fill-rule="evenodd" clip-rule="evenodd" d="M24.5514 9.8524C24.2587 9.55919 23.8614 9.39428 23.4471 9.39396L5.34596 9.38003L12.0597 2.67969C12.3533 2.38656 12.5184 1.9888 12.5188 1.57392C12.5191 1.15904 12.3546 0.76103 12.0614 0.467441C11.7683 0.173853 11.3705 0.00873723 10.9557 0.00841797C10.5408 0.00809871 10.1428 0.172602 9.84919 0.465739L0.468027 9.83247C0.322421 9.97749 0.206855 10.1498 0.127948 10.3396C0.0490404 10.5293 0.00834236 10.7327 0.00818422 10.9382C0.00802609 11.1437 0.0484109 11.3473 0.127026 11.5371C0.205641 11.727 0.320942 11.8995 0.466324 12.0447L9.83306 21.4259C9.97821 21.5713 10.1506 21.6866 10.3403 21.7654C10.53 21.8441 10.7334 21.8848 10.9388 21.8849C11.1443 21.8851 11.3477 21.8448 11.5376 21.7663C11.7274 21.6878 11.8999 21.5727 12.0453 21.4276C12.1907 21.2824 12.306 21.1101 12.3848 20.9204C12.4636 20.7306 12.5042 20.5272 12.5043 20.3218C12.5045 20.1164 12.4642 19.9129 12.3857 19.7231C12.3073 19.5332 12.1922 19.3607 12.047 19.2153L5.34355 12.5047L23.4447 12.5186C23.859 12.5189 24.2565 12.3546 24.5497 12.0619C24.8429 11.7691 25.0079 11.3718 25.0082 10.9575C25.0085 10.5431 24.8442 10.1456 24.5514 9.8524Z" fill="#FCFCFC"/>
</svg>
