<svg width="24" height="20" viewBox="0 0 24 20" fill="none" xmlns="http://www.w3.org/2000/svg">
<path d="M23.8999 10.0765C21.4767 15.7025 16.9183 19.1933 12 19.1933C7.08171 19.1933 2.5233 15.7025 0.100147 10.0765C0.0340939 9.92513 0 9.76177 0 9.59664C0 9.43151 0.0340939 9.26816 0.100147 9.11681C2.5233 3.49077 7.08171 -1.52588e-05 12 -1.52588e-05C16.9183 -1.52588e-05 21.4767 3.49077 23.8999 9.11681C23.9659 9.26816 24 9.43151 24 9.59664C24 9.76177 23.9659 9.92513 23.8999 10.0765ZM12 2.39915C8.19732 2.39915 4.59858 5.14619 2.5233 9.59664C4.59858 14.0471 8.19732 16.7941 12 16.7941C15.8027 16.7941 19.4014 14.0471 21.4767 9.59664C19.4014 5.14619 15.8027 2.39915 12 2.39915ZM12 14.395C11.051 14.395 10.1233 14.1136 9.33419 13.5863C8.54511 13.0591 7.9301 12.3097 7.56692 11.4329C7.20375 10.5561 7.10873 9.59132 7.29387 8.66053C7.47901 7.72975 7.93601 6.87477 8.60707 6.20371C9.27813 5.53265 10.1331 5.07566 11.0639 4.89051C11.9947 4.70537 12.9595 4.80039 13.8362 5.16356C14.713 5.52674 15.4624 6.14175 15.9897 6.93083C16.5169 7.71991 16.7983 8.64762 16.7983 9.59664C16.7983 10.8692 16.2928 12.0897 15.3929 12.9896C14.4931 13.8894 13.2726 14.395 12 14.395ZM12 7.19748C11.5255 7.19748 11.0616 7.33819 10.6671 7.60181C10.2726 7.86543 9.96505 8.24013 9.78346 8.67852C9.60187 9.11691 9.55436 9.5993 9.64694 10.0647C9.73951 10.5301 9.96801 10.9576 10.3035 11.2931C10.6391 11.6286 11.0666 11.8571 11.5319 11.9497C11.9973 12.0423 12.4797 11.9948 12.9181 11.8132C13.3565 11.6316 13.7312 11.3241 13.9948 10.9295C14.2585 10.535 14.3992 10.0712 14.3992 9.59664C14.3992 8.96034 14.1464 8.35011 13.6965 7.90018C13.2465 7.45025 12.6363 7.19748 12 7.19748Z" fill="#fcfcfc"/>
</svg>
