<svg width="15" height="15" viewBox="0 0 15 15" fill="none" xmlns="http://www.w3.org/2000/svg">
<path d="M9.48188 14.9999H5.34433C1.59985 14.9999 0 13.4001 0 9.65559V5.51804C0 1.77356 1.59985 0.173706 5.34433 0.173706H6.72352C7.00625 0.173706 7.24071 0.408167 7.24071 0.6909C7.24071 0.973632 7.00625 1.20809 6.72352 1.20809H5.34433C2.16532 1.20809 1.03439 2.33902 1.03439 5.51804V9.65559C1.03439 12.8346 2.16532 13.9655 5.34433 13.9655H9.48188C12.6609 13.9655 13.7918 12.8346 13.7918 9.65559V8.27641C13.7918 7.99367 14.0263 7.75921 14.309 7.75921C14.5918 7.75921 14.8262 7.99367 14.8262 8.27641V9.65559C14.8262 13.4001 13.2264 14.9999 9.48188 14.9999Z" fill="#97bce6"/>
<path d="M4.99853 11.511C4.57788 11.511 4.19171 11.3593 3.90898 11.0835C3.57108 10.7456 3.42627 10.256 3.50212 9.73878L3.79864 7.66311C3.85381 7.26315 4.11586 6.74596 4.39859 6.46322L9.83254 1.02922C11.2048 -0.343072 12.5978 -0.343072 13.9701 1.02922C14.7217 1.78087 15.0596 2.54632 14.9907 3.31176C14.9286 3.9324 14.5976 4.53924 13.9701 5.15987L8.5361 10.5939C8.25337 10.8766 7.73618 11.1387 7.33622 11.1938L5.26058 11.4903C5.17093 11.511 5.08128 11.511 4.99853 11.511ZM10.5635 1.76018L5.12956 7.19419C4.99853 7.32521 4.84682 7.62863 4.81924 7.80793L4.52272 9.8836C4.49513 10.0836 4.53651 10.2491 4.63995 10.3525C4.74339 10.456 4.90889 10.4973 5.10887 10.4698L7.1845 10.1732C7.3638 10.1456 7.67412 9.99393 7.79824 9.86291L13.2322 4.4289C13.6805 3.98067 13.9149 3.5807 13.9494 3.20832C13.9908 2.76009 13.7563 2.28427 13.2322 1.75329C12.1289 0.64994 11.3703 0.960257 10.5635 1.76018Z" fill="#97bce6"/>
<path d="M12.8263 6.09034C12.778 6.09034 12.7298 6.08344 12.6884 6.06965C10.8748 5.55935 9.43353 4.11811 8.92323 2.30448C8.84738 2.02864 9.00598 1.74591 9.28182 1.66316C9.55766 1.58731 9.84039 1.74591 9.91624 2.02175C10.33 3.49058 11.4954 4.65599 12.9642 5.06974C13.2401 5.1456 13.3987 5.43523 13.3228 5.71106C13.2608 5.94553 13.0539 6.09034 12.8263 6.09034Z" fill="#97bce6"/>
</svg>
