<svg width="209" height="24" viewBox="0 0 209 24" fill="#97bce6" xmlns="http://www.w3.org/2000/svg">
<path d="M1.50275 23V20.824L10.6227 12.024C11.4334 11.256 12.0307 10.584 12.4147 10.008C12.8201 9.41067 13.0867 8.86667 13.2147 8.376C13.3641 7.864 13.4387 7.37333 13.4387 6.904C13.4387 5.752 13.0334 4.84533 12.2227 4.184C11.4121 3.52267 10.2281 3.192 8.67075 3.192C7.47608 3.192 6.39875 3.39467 5.43875 3.8C4.47875 4.184 3.64675 4.792 2.94275 5.624L0.766748 3.736C1.62008 2.648 2.76142 1.816 4.19075 1.24C5.64142 0.642666 7.23075 0.344 8.95875 0.344C10.5161 0.344 11.8707 0.6 13.0227 1.112C14.1747 1.60267 15.0601 2.31733 15.6787 3.256C16.3187 4.19467 16.6388 5.304 16.6388 6.584C16.6388 7.30933 16.5428 8.024 16.3507 8.728C16.1587 9.432 15.7961 10.1787 15.2627 10.968C14.7294 11.7573 13.9614 12.6427 12.9587 13.624L4.83075 21.464L4.06275 20.216H17.5987V23H1.50275ZM36.0065 23.256C34.0225 23.256 32.3265 22.8187 30.9185 21.944C29.5105 21.0693 28.4332 19.8107 27.6865 18.168C26.9612 16.504 26.5985 14.4773 26.5985 12.088C26.5985 9.54933 27.0465 7.40533 27.9425 5.656C28.8385 3.90667 30.0865 2.584 31.6865 1.688C33.2865 0.792 35.1212 0.344 37.1905 0.344C38.2572 0.344 39.2705 0.450666 40.2305 0.664C41.2118 0.877333 42.0545 1.208 42.7585 1.656L41.5425 4.152C40.9665 3.74667 40.3052 3.46933 39.5585 3.32C38.8332 3.17067 38.0652 3.096 37.2545 3.096C34.9718 3.096 33.1585 3.81067 31.8145 5.24C30.4705 6.648 29.7985 8.74933 29.7985 11.544C29.7985 11.992 29.8198 12.5253 29.8625 13.144C29.9052 13.7627 30.0118 14.3707 30.1825 14.968L29.0945 13.88C29.4145 12.8987 29.9158 12.0773 30.5985 11.416C31.3025 10.7333 32.1345 10.232 33.0945 9.912C34.0758 9.57067 35.1318 9.4 36.2625 9.4C37.7558 9.4 39.0785 9.67733 40.2305 10.232C41.3825 10.7867 42.2892 11.576 42.9505 12.6C43.6118 13.6027 43.9425 14.7973 43.9425 16.184C43.9425 17.6133 43.5905 18.8613 42.8865 19.928C42.1825 20.9947 41.2332 21.816 40.0385 22.392C38.8438 22.968 37.4998 23.256 36.0065 23.256ZM35.8785 20.664C36.8598 20.664 37.7132 20.4827 38.4385 20.12C39.1852 19.7573 39.7718 19.256 40.1985 18.616C40.6252 17.9547 40.8385 17.1867 40.8385 16.312C40.8385 14.9893 40.3798 13.944 39.4625 13.176C38.5452 12.3867 37.2972 11.992 35.7185 11.992C34.6945 11.992 33.7985 12.184 33.0305 12.568C32.2625 12.952 31.6545 13.4747 31.2065 14.136C30.7798 14.776 30.5665 15.512 30.5665 16.344C30.5665 17.112 30.7692 17.8267 31.1745 18.488C31.5798 19.128 32.1772 19.6507 32.9665 20.056C33.7558 20.4613 34.7265 20.664 35.8785 20.664ZM196.278 23.256C194.572 23.256 192.982 22.968 191.51 22.392C190.06 21.816 188.801 21.016 187.734 19.992C186.668 18.9467 185.836 17.7307 185.238 16.344C184.641 14.9573 184.342 13.4427 184.342 11.8C184.342 10.1573 184.641 8.64267 185.238 7.256C185.836 5.86933 186.668 4.664 187.734 3.64C188.801 2.59467 190.06 1.784 191.51 1.208C192.961 0.631999 194.55 0.344 196.278 0.344C197.985 0.344 199.553 0.631999 200.982 1.208C202.433 1.76267 203.692 2.56267 204.758 3.608C205.846 4.632 206.678 5.83733 207.254 7.224C207.852 8.61067 208.15 10.136 208.15 11.8C208.15 13.464 207.852 14.9893 207.254 16.376C206.678 17.7627 205.846 18.9787 204.758 20.024C203.692 21.048 202.433 21.848 200.982 22.424C199.553 22.9787 197.985 23.256 196.278 23.256ZM196.278 20.408C197.516 20.408 198.657 20.1947 199.702 19.768C200.769 19.3413 201.686 18.744 202.454 17.976C203.244 17.1867 203.852 16.2693 204.278 15.224C204.726 14.1787 204.95 13.0373 204.95 11.8C204.95 10.5627 204.726 9.42133 204.278 8.376C203.852 7.33067 203.244 6.424 202.454 5.656C201.686 4.86666 200.769 4.25867 199.702 3.832C198.657 3.40533 197.516 3.192 196.278 3.192C195.02 3.192 193.857 3.40533 192.79 3.832C191.745 4.25867 190.828 4.86666 190.038 5.656C189.249 6.424 188.63 7.33067 188.182 8.376C187.756 9.42133 187.542 10.5627 187.542 11.8C187.542 13.0373 187.756 14.1787 188.182 15.224C188.63 16.2693 189.249 17.1867 190.038 17.976C190.828 18.744 191.745 19.3413 192.79 19.768C193.857 20.1947 195.02 20.408 196.278 20.408Z" fill="#97bce6"/>
<path d="M61.1005 23.256C59.3938 23.256 57.7618 23 56.2045 22.488C54.6472 21.9547 53.4205 21.272 52.5245 20.44L53.7085 17.944C54.5618 18.6907 55.6498 19.3093 56.9725 19.8C58.2952 20.2907 59.6712 20.536 61.1005 20.536C62.4018 20.536 63.4578 20.3867 64.2685 20.088C65.0792 19.7893 65.6765 19.384 66.0605 18.872C66.4445 18.3387 66.6365 17.7413 66.6365 17.08C66.6365 16.312 66.3805 15.6933 65.8685 15.224C65.3778 14.7547 64.7272 14.3813 63.9165 14.104C63.1272 13.8053 62.2525 13.5493 61.2925 13.336C60.3325 13.1227 59.3618 12.8773 58.3805 12.6C57.4205 12.3013 56.5352 11.928 55.7245 11.48C54.9352 11.032 54.2952 10.4347 53.8045 9.688C53.3138 8.92 53.0685 7.93867 53.0685 6.744C53.0685 5.592 53.3672 4.536 53.9645 3.576C54.5832 2.59466 55.5218 1.816 56.7805 1.24C58.0605 0.642666 59.6818 0.344 61.6445 0.344C62.9458 0.344 64.2365 0.514666 65.5165 0.855999C66.7965 1.19733 67.9058 1.688 68.8445 2.328L67.7885 4.888C66.8285 4.248 65.8152 3.78933 64.7485 3.512C63.6818 3.21333 62.6472 3.064 61.6445 3.064C60.3858 3.064 59.3512 3.224 58.5405 3.544C57.7298 3.864 57.1325 4.29067 56.7485 4.824C56.3858 5.35733 56.2045 5.95467 56.2045 6.616C56.2045 7.40533 56.4498 8.03467 56.9405 8.504C57.4525 8.97333 58.1032 9.34667 58.8925 9.624C59.7032 9.90133 60.5885 10.1573 61.5485 10.392C62.5085 10.6053 63.4685 10.8507 64.4285 11.128C65.4098 11.4053 66.2952 11.768 67.0845 12.216C67.8952 12.664 68.5458 13.2613 69.0365 14.008C69.5272 14.7547 69.7725 15.7147 69.7725 16.888C69.7725 18.0187 69.4632 19.0747 68.8445 20.056C68.2258 21.016 67.2658 21.7947 65.9645 22.392C64.6845 22.968 63.0632 23.256 61.1005 23.256ZM84.983 23V3.384H77.303V0.599998H95.831V3.384H88.151V23H84.983ZM114.59 23.256C111.646 23.256 109.331 22.4133 107.646 20.728C105.961 19.0427 105.118 16.5787 105.118 13.336V0.599998H108.318V13.208C108.318 15.704 108.862 17.528 109.95 18.68C111.059 19.832 112.617 20.408 114.622 20.408C116.649 20.408 118.206 19.832 119.294 18.68C120.403 17.528 120.958 15.704 120.958 13.208V0.599998H124.062V13.336C124.062 16.5787 123.219 19.0427 121.534 20.728C119.87 22.4133 117.555 23.256 114.59 23.256ZM137.023 23V0.599998H146.463C148.852 0.599998 150.953 1.06933 152.767 2.008C154.601 2.94667 156.02 4.25867 157.023 5.944C158.047 7.62933 158.559 9.58133 158.559 11.8C158.559 14.0187 158.047 15.9707 157.023 17.656C156.02 19.3413 154.601 20.6533 152.767 21.592C150.953 22.5307 148.852 23 146.463 23H137.023ZM140.223 20.216H146.271C148.127 20.216 149.727 19.864 151.071 19.16C152.436 18.456 153.492 17.4747 154.239 16.216C154.985 14.936 155.359 13.464 155.359 11.8C155.359 10.1147 154.985 8.64267 154.239 7.384C153.492 6.12533 152.436 5.144 151.071 4.44C149.727 3.736 148.127 3.384 146.271 3.384H140.223V20.216ZM169.86 23V0.599998H173.06V23H169.86Z" fill="#FCFCFC"/>
</svg>
