<svg width="22" height="22" viewBox="0 0 22 22" fill="none" xmlns="http://www.w3.org/2000/svg">
<path d="M5.5 0C3.9875 0 2.64 0.741935 1.6225 1.90323C0.6325 3.06452 0 4.64516 0 6.45161C0 8.22581 0.6325 9.80645 1.6225 11L11 22L20.3775 11C21.3675 9.83871 22 8.25806 22 6.45161C22 4.67742 21.3675 3.09677 20.3775 1.90323C19.3875 0.741935 18.04 0 16.5 0C14.9875 0 13.64 0.741935 12.6225 1.90323C11.6325 3.06452 11 4.64516 11 6.45161C11 4.67742 10.3675 3.09677 9.3775 1.90323C8.3875 0.741935 7.04 0 5.5 0Z" fill="white"/>
</svg>
