<svg width="22" height="15" viewBox="0 0 22 15" fill="none" xmlns="http://www.w3.org/2000/svg">
<path d="M11.0825 0C4.125 0 0 7.5 0 7.5C0 7.5 4.125 15 11.0825 15C17.875 15 22 7.5 22 7.5C22 7.5 17.875 0 11.0825 0ZM11 2.5C14.0525 2.5 16.5 4.75 16.5 7.5C16.5 10.275 14.0525 12.5 11 12.5C7.975 12.5 5.5 10.275 5.5 7.5C5.5 4.75 7.975 2.5 11 2.5ZM11 5C9.4875 5 8.25 6.125 8.25 7.5C8.25 8.875 9.4875 10 11 10C12.5125 10 13.75 8.875 13.75 7.5C13.75 7.25 13.64 7.025 13.585 6.8C13.365 7.2 12.925 7.5 12.375 7.5C11.605 7.5 11 6.95 11 6.25C11 5.75 11.33 5.35 11.77 5.15C11.5225 5.075 11.275 5 11 5Z" fill="white"/>
</svg>
