<svg width="70" height="70" viewBox="0 0 70 70" fill="none" xmlns="http://www.w3.org/2000/svg">
<path d="M24.5 17.9747C27.5518 16.0885 31.1488 15 35 15C46.0457 15 55 23.9543 55 35C55 46.0457 46.0457 55 35 55C27.2998 55 20.616 50.6484 17.2736 44.2703L15.0829 50.1122C19.6488 56.1206 26.8713 60 35 60C48.8071 60 60 48.8071 60 35C60 21.1929 48.8071 10 35 10C31.2498 10 27.6925 10.8257 24.5 12.3053V17.9747Z" fill="#97BCE6"/>
<path d="M49.2268 61.4187C44.9933 63.7033 40.1481 65 35 65C18.4315 65 5 51.5685 5 35C5 18.4315 18.4315 5 35 5C51.5685 5 65 18.4315 65 35C65 36.1839 64.9314 37.3519 64.798 38.5H69.8272C69.9415 37.3488 70 36.1812 70 35C70 15.67 54.33 0 35 0C15.67 0 0 15.67 0 35C0 54.33 15.67 70 35 70C41.439 70 47.4719 68.2612 52.6548 65.2275L49.2268 61.4187Z" fill="#97BCE6"/>
</svg>
